<svg id="atscale-logo-light" xmlns="http://www.w3.org/2000/svg" width="300.667" height="34.097" viewBox="0 0 300.667 34.097">
  <path id="Path_1" data-name="Path 1" d="M1146.757,100.8,1136.4,118.753h20.73Z" transform="translate(-959.144 -85.077)" fill="#00aca0"/>
  <path id="Path_2" data-name="Path 2" d="M240.194,29.605h18.328v4.071H235.8V3.962h4.4ZM47.106,8.033H57.557V33.661h4.4V8.033H72.406V3.962h-25.3Zm253.561,0V3.962H277.925v29.7h22.742V29.589H282.324V20.823H298.9v-4.04H282.324V8.033Zm-197.549,8.1c-5.257-1.373-7.643-2.433-7.643-4.523,0-2,2.246-3.993,7.612-3.993a11.874,11.874,0,0,1,9.078,4.1l3.354-2.823c-3.759-4.492-9.016-5.366-12.4-5.366-8.626,0-12.166,4.258-12.166,8.1,0,5.834,5.646,7.191,12.166,8.891,3.494.92,8,2,8.127,5.007.094,2.574-3.12,4.508-8.127,4.508a14.233,14.233,0,0,1-8.766-3.354l-3.447,2.9c2.371,2.34,7.159,4.523,12.213,4.523,5.335,0,12.65-2.028,12.65-8.579,0-6.52-7.456-8.033-12.65-9.39Zm48.276,13.555a10.919,10.919,0,1,1,8.361-17.938l3.338-2.808a15.285,15.285,0,1,0,.016,19.669L159.755,25.8a10.914,10.914,0,0,1-8.361,3.884ZM17.142,3.962,0,33.661H4.679l4.586-7.955H25l4.586,7.955h4.679Zm-5.522,17.7,5.537-9.577L22.7,21.666ZM191.138,13.7l1.17,2.028,4.383-7.612,12.416,21.494h-8.782l1.17,2.043,1.17,2.012h13.461L196.691,0l-6.723,11.652Z" transform="translate(0 0)" fill="#fff"/>
</svg>
